<svg width="29" height="30" viewBox="0 0 29 30" fill="none" xmlns="http://www.w3.org/2000/svg">
  <path
    d="M4.16922 8.28177C4.16922 6.21071 5.84816 4.53177 7.91922 4.53177C9.99029 4.53177 11.6692 6.21071 11.6692 8.28177C11.6692 10.3528 9.99029 12.0318 7.91922 12.0318C5.84816 12.0318 4.16922 10.3528 4.16922 8.28177Z"
    fill="#D9D9D9" />
  <path
    d="M16.6692 19.5318C16.6692 17.4607 18.3482 15.7818 20.4192 15.7818C22.4903 15.7818 24.1692 17.4607 24.1692 19.5318V23.2818C24.1692 25.3528 22.4903 27.0318 20.4192 27.0318C18.3482 27.0318 16.6692 25.3528 16.6692 23.2818V19.5318Z"
    fill="#D9D9D9" />
  <path fill-rule="evenodd" clip-rule="evenodd"
    d="M12.5241 13.5418C13.3411 13.403 14.0695 12.9453 14.5491 12.2695C15.0287 11.5937 15.2202 10.755 15.0816 9.93801L13.8366 2.60177C13.7678 2.1971 13.6201 1.80994 13.4017 1.4624C13.1833 1.11486 12.8986 0.81374 12.5639 0.576244C12.2291 0.338749 11.8508 0.16953 11.4506 0.0782514C11.0505 -0.0130267 10.6362 -0.0245754 10.2316 0.044265L2.60157 1.34052C1.78457 1.47932 1.05616 1.93696 0.576553 2.61278C0.096942 3.2886 -0.0945941 4.12724 0.0440718 4.94426L1.28907 12.2805C1.3578 12.6852 1.50557 13.0723 1.72394 13.4199C1.94232 13.7674 2.22702 14.0685 2.56179 14.306C2.89656 14.5435 3.27483 14.7128 3.67501 14.804C4.07519 14.8953 4.48943 14.9069 4.89407 14.838L12.5241 13.5418ZM6.01907 7.44177C6.01907 7.03201 6.18185 6.63903 6.47159 6.34929C6.76134 6.05954 7.15431 5.89677 7.56407 5.89677C7.97383 5.89677 8.36681 6.05954 8.65655 6.34929C8.9463 6.63903 9.10907 7.03201 9.10907 7.44177C9.10907 7.85152 8.9463 8.2445 8.65655 8.53424C8.36681 8.82399 7.97383 8.98676 7.56407 8.98676C7.15431 8.98676 6.76134 8.82399 6.47159 8.53424C6.18185 8.2445 6.01907 7.85152 6.01907 7.44177ZM24.3903 27.4355C23.9931 28.1628 23.3233 28.7026 22.5281 28.936C21.733 29.1695 20.8777 29.0776 20.1503 28.6805L13.3578 24.9705C12.6305 24.5733 12.0908 23.9035 11.8573 23.1083C11.6238 22.3132 11.7157 21.4579 12.1128 20.7305L15.6791 14.2005C16.0763 13.4732 16.7461 12.9335 17.5413 12.7C18.3364 12.4665 19.1917 12.5584 19.9191 12.9555L26.7128 16.6655C27.4399 17.0629 27.9794 17.7329 28.2126 18.528C28.4459 19.3231 28.3538 20.1783 27.9566 20.9055L24.3903 27.4355ZM19.1278 16.628C18.7181 16.628 18.3251 16.7908 18.0353 17.0805C17.7456 17.3703 17.5828 17.7633 17.5828 18.173C17.5828 18.5828 17.7456 18.9758 18.0353 19.2655C18.3251 19.5552 18.7181 19.718 19.1278 19.718C19.5376 19.718 19.9306 19.5552 20.2203 19.2655C20.51 18.9758 20.6728 18.5828 20.6728 18.173C20.6728 17.7633 20.51 17.3703 20.2203 17.0805C19.9306 16.7908 19.5376 16.628 19.1278 16.628ZM19.3403 23.2155C19.3403 22.8058 19.5031 22.4128 19.7928 22.123C20.0826 21.8333 20.4756 21.6705 20.8853 21.6705C21.2951 21.6705 21.6881 21.8333 21.9778 22.123C22.2675 22.4128 22.4303 22.8058 22.4303 23.2155C22.4303 23.6253 22.2675 24.0183 21.9778 24.308C21.6881 24.5977 21.2951 24.7605 20.8853 24.7605C20.4756 24.7605 20.0826 24.5977 19.7928 24.308C19.5031 24.0183 19.3403 23.6253 19.3403 23.2155Z"
    fill="#2E93DF" />
  <path
    d="M1.16922 4.03177C1.16922 3.20335 1.8408 2.53177 2.66922 2.53177C3.49765 2.53177 4.16922 3.20335 4.16922 4.03177C4.16922 4.8602 3.49765 5.53177 2.66922 5.53177C1.8408 5.53177 1.16922 4.8602 1.16922 4.03177Z"
    fill="#D9D9D9" />
  <path
    d="M11.1692 11.0318C11.1692 10.2033 11.8408 9.53177 12.6692 9.53177C13.4977 9.53177 14.1692 10.2033 14.1692 11.0318C14.1692 11.8602 13.4977 12.5318 12.6692 12.5318C11.8408 12.5318 11.1692 11.8602 11.1692 11.0318Z"
    fill="#D9D9D9" />
</svg>